<?xml version="1.0" encoding="UTF-8"?>
<svg width="24px" height="24px" viewBox="0 0 24 24" version="1.1" xmlns="http://www.w3.org/2000/svg" xmlns:xlink="http://www.w3.org/1999/xlink">
    <title>透明底/ops批次</title>
    <defs>
        <linearGradient x1="49.1725651%" y1="95.5125646%" x2="50.4390466%" y2="-1.48484455%" id="linearGradient-1">
            <stop stop-color="#7DA6FB" stop-opacity="0.5" offset="0%"></stop>
            <stop stop-color="#6A7FFC" stop-opacity="0.68" offset="23%"></stop>
            <stop stop-color="#5B60FC" stop-opacity="0.82" offset="45%"></stop>
            <stop stop-color="#504AFD" stop-opacity="0.92" offset="66%"></stop>
            <stop stop-color="#493DFD" stop-opacity="0.98" offset="85%"></stop>
            <stop stop-color="#4738FD" offset="100%"></stop>
        </linearGradient>
        <linearGradient x1="91.3883103%" y1="71.7377666%" x2="5.4042092%" y2="26.5654652%" id="linearGradient-2">
            <stop stop-color="#CAE426" offset="0%"></stop>
            <stop stop-color="#99D32B" offset="43%"></stop>
            <stop stop-color="#51BA33" offset="100%"></stop>
        </linearGradient>
        <linearGradient x1="12.7137779%" y1="70.1110353%" x2="85.5260252%" y2="30.924061%" id="linearGradient-3">
            <stop stop-color="#F3B463" offset="0%"></stop>
            <stop stop-color="#F08D40" offset="43%"></stop>
            <stop stop-color="#EB530C" offset="100%"></stop>
        </linearGradient>
        <linearGradient x1="74.308867%" y1="89.4179483%" x2="24.3408966%" y2="8.438105%" id="linearGradient-4">
            <stop stop-color="#7DA6FB" offset="0%"></stop>
            <stop stop-color="#6876FC" offset="29%"></stop>
            <stop stop-color="#492CFD" offset="78%"></stop>
            <stop stop-color="#3C0FFD" offset="100%"></stop>
        </linearGradient>
        <linearGradient x1="70.9657069%" y1="55.8006327%" x2="-26.1121906%" y2="79.6255418%" id="linearGradient-5">
            <stop stop-color="#7DA6FB" stop-opacity="0.5" offset="0%"></stop>
            <stop stop-color="#6A7FFC" stop-opacity="0.68" offset="23%"></stop>
            <stop stop-color="#5B60FC" stop-opacity="0.82" offset="45%"></stop>
            <stop stop-color="#504AFD" stop-opacity="0.92" offset="66%"></stop>
            <stop stop-color="#493DFD" stop-opacity="0.98" offset="85%"></stop>
            <stop stop-color="#4738FD" offset="100%"></stop>
        </linearGradient>
        <linearGradient x1="-10.3522525%" y1="29.4338466%" x2="55.0089162%" y2="108.662121%" id="linearGradient-6">
            <stop stop-color="#7DA6FB" stop-opacity="0.5" offset="0%"></stop>
            <stop stop-color="#6A7FFC" stop-opacity="0.68" offset="23%"></stop>
            <stop stop-color="#5B60FC" stop-opacity="0.82" offset="45%"></stop>
            <stop stop-color="#504AFD" stop-opacity="0.92" offset="66%"></stop>
            <stop stop-color="#493DFD" stop-opacity="0.98" offset="85%"></stop>
            <stop stop-color="#4738FD" offset="100%"></stop>
        </linearGradient>
        <linearGradient x1="65.3739104%" y1="-0.0619035142%" x2="35.5753604%" y2="97.1800528%" id="linearGradient-7">
            <stop stop-color="#FEF359" offset="0%"></stop>
            <stop stop-color="#FEBB11" offset="100%"></stop>
        </linearGradient>
    </defs>
    <g id="页面-2" stroke="none" stroke-width="1" fill="none" fill-rule="evenodd">
        <g id="任务列表" transform="translate(-21.000000, -28.000000)">
            <g id="透明底/ops批次" transform="translate(17.000000, 24.000000)">
                <rect id="矩形" fill="#000000" opacity="0" x="0" y="0" width="32" height="32"></rect>
                <g id="编组-7" transform="translate(4.363636, 4.000000)" fill-rule="nonzero">
                    <path d="M4.39699082,18.8559743 C4.07808486,19.1918519 3.82811111,19.5869849 3.66120827,20.0190244 L3.39741437,20.6973948 L2.9139433,20.1534898 C-1.20116088,15.5354644 -0.925725383,8.48949599 3.53731881,4.20680079 C3.58717677,4.15905802 3.63794123,4.11252393 3.68840352,4.06478116 L4.22203472,3.56922331 L4.42056003,4.26965203 C4.54914052,4.72487475 4.75432738,5.15486793 5.02731623,5.54118095 L5.24366954,5.84576773 L4.98199082,6.11046814 C1.72470117,9.42808408 1.48188364,14.664016 4.41814268,18.2688592 L4.66471292,18.5710286 L4.39699082,18.8559743 Z" id="路径" fill="url(#linearGradient-1)"></path>
                    <path d="M9.37372119,21.8483581 C9.09858892,23.0693551 7.94364339,23.8837173 6.7011637,23.7328019 C5.458684,23.5818865 4.53227516,22.5147165 4.55744278,21.2633581 C4.55895363,21.1887223 4.56378834,21.1122734 4.57224908,21.0385441 C4.71905885,19.7448213 5.8566753,18.7948705 7.15583925,18.8811529 C8.45500319,18.9674353 9.45700259,20.0594861 9.43143555,21.361261 C9.42841713,21.5251402 9.40908359,21.6883113 9.37372119,21.8483581 L9.37372119,21.8483581 Z" id="路径" fill="url(#linearGradient-2)"></path>
                    <path d="M5.32253575,3.38097176 C5.23051125,2.26106209 5.74683219,1.17796793 6.67480345,0.544299628 C7.60277471,-0.0893686772 8.79950716,-0.176038816 9.80909937,0.317306652 C10.8186916,0.810652119 11.4856864,1.80804781 11.5559887,2.92953064 C11.5611256,3.01746195 11.5641473,3.10509108 11.5623343,3.1918137 C11.5284949,4.85606343 10.1961716,6.20174352 8.53234225,6.25218213 C6.86851287,6.30262073 5.4571231,5.04011567 5.32253575,3.38097176 L5.32253575,3.38097176 Z" id="路径" fill="url(#linearGradient-3)"></path>
                    <path d="M16.3477914,12.625543 C16.2943074,15.2976272 14.0772904,17.4273173 11.4055084,17.3738333 C8.73372635,17.3203493 6.60403627,15.1033323 6.65903111,12.4306438 C6.71402594,9.75795523 8.92922997,7.63007817 11.6013142,7.68386432 C14.2733984,7.73765048 16.4012754,9.95496969 16.3477914,12.625543 Z" id="路径" fill="url(#linearGradient-4)"></path>
                    <path d="M20.9863942,17.9733375 L21.5647465,18.1325807 L21.2444469,18.6399232 C19.0945594,22.0547025 15.3117068,24.0922936 11.2773885,24.0085673 C10.958902,24.0022218 10.6364872,23.9831851 10.318605,23.9505508 L9.59007449,23.8747063 L9.98984464,23.2640219 C10.243055,22.8758973 10.4175863,22.4418278 10.5035327,21.9864495 L10.5775642,21.6029966 L10.9670605,21.6256593 C11.0858131,21.6317026 11.2045657,21.6368395 11.3230161,21.6389547 C13.747231,21.6916705 16.0924394,20.7757723 17.8392997,19.0940838 C18.3542173,18.5989556 18.8096406,18.0454708 19.1963426,17.4448431 L19.4815905,17.0030715 L19.8710869,17.3560053 C20.1896694,17.6458838 20.5715978,17.8572844 20.9863942,17.9733375 Z" id="路径" fill="url(#linearGradient-5)"></path>
                    <path d="M12.3516008,1.670995 L12.0980807,0.992020314 L12.8202656,1.07300172 C18.5264122,1.72413058 22.8767868,6.48627118 23.0106272,12.2278881 L23.0251313,12.8246727 L22.4479877,12.6678468 C22.0322981,12.5550206 21.5960771,12.5403317 21.1737393,12.6249387 L20.6564252,12.7294893 L20.6395037,12.202808 C20.4989402,7.84233701 17.2924961,4.19086987 12.986761,3.48793974 L12.6190208,3.42750585 L12.6117687,3.05523312 C12.6046166,2.58236036 12.516625,2.11419568 12.3516008,1.670995 Z" id="路径" fill="url(#linearGradient-6)"></path>
                    <path d="M23.40798,15.3553416 C23.3881538,16.286555 22.6183845,17.0260473 21.6871251,17.0085105 C21.6505626,17.0085105 21.6152088,17.0060931 21.5786463,17.0030715 C21.0910859,16.9616576 20.645431,16.7108872 20.3569753,16.315636 C20.2484934,16.1679293 20.1650859,16.0033601 20.1101029,15.8285389 C19.9087786,15.1903337 20.1034308,14.4934566 20.6063388,14.0519581 C21.1092468,13.6104595 21.8254634,13.5076929 22.4322227,13.7899703 C23.038982,14.0722478 23.4217301,14.6862763 23.40798,15.3553416 L23.40798,15.3553416 Z" id="路径" fill="url(#linearGradient-7)"></path>
                </g>
            </g>
        </g>
    </g>
</svg>