<?xml version="1.0" encoding="UTF-8"?>
<svg width="32px" height="22px" viewBox="0 0 32 22" version="1.1" xmlns="http://www.w3.org/2000/svg" xmlns:xlink="http://www.w3.org/1999/xlink">
    <title>优先级/中</title>
    <defs>
        <polygon id="path-1" points="0 0 10 0 10 20 0 20"></polygon>
        <polygon id="path-3" points="0 0 10 0 10 20 0 20"></polygon>
    </defs>
    <g id="-" stroke="none" stroke-width="1" fill="none" fill-rule="evenodd">
        <g id="管理员全部任务/查看编辑按钮" transform="translate(-1023.000000, -361.000000)">
            <g id="编组-11" transform="translate(88.000000, 216.000000)">
                <g id="编组-18-+-编组-17-+-编组-17-+-编组-7-+-编组-16-+-编组-12-+-编组-14-+-编组-13-+-编组-3-+-编组-15-+-编组-10-+-编组-5-蒙版" transform="translate(0.000000, 56.000000)">
                    <g id="编组-7" transform="translate(911.001966, 0.000000)">
                        <g id="优先级/中" transform="translate(24.000000, 89.000000)">
                            <g id="编组" transform="translate(6.500000, 1.488434)">
                                <g id="编组-3备份-3" transform="translate(9.000000, 0.000000)">
                                    <mask id="mask-2" fill="white">
                                        <use xlink:href="#path-1"></use>
                                    </mask>
                                    <g id="Clip-2"></g>
                                    <path d="M8.92955524,7.65699861 L5.1698543,1.60566966 C5.09189792,1.48020768 4.90886988,1.48020768 4.83091349,1.60566966 L1.07046489,7.65679978 C0.954452433,7.84347668 1.01214714,8.08858487 1.19936209,8.20427931 L1.6230381,8.46613896 C1.81022813,8.58183341 2.05601007,8.52429686 2.17202253,8.3375951 L4.33314402,4.86002639 L4.33314402,18.0907735 C4.33314402,18.3103817 4.51166116,18.4884343 4.73189792,18.4884343 L5.23034028,18.4884343 C5.45055212,18.4884343 5.62909418,18.3103817 5.62909418,18.0907735 L5.62909418,4.79861265 L7.82792284,8.33769452 C7.94391038,8.52437142 8.18969231,8.58195768 8.37690726,8.46628808 L8.8006082,8.20447814 C8.98782315,8.08880855 9.04554278,7.84370037 8.92955524,7.65699861" id="Fill-1" stroke="#FFA940" stroke-width="0.2" fill="#FFA940" mask="url(#mask-2)"></path>
                                </g>
                                <g id="编组-3备份-4">
                                    <mask id="mask-4" fill="white">
                                        <use xlink:href="#path-3"></use>
                                    </mask>
                                    <g id="Clip-2"></g>
                                    <path d="M8.92955524,7.65699861 L5.1698543,1.60566966 C5.09189792,1.48020768 4.90886988,1.48020768 4.83091349,1.60566966 L1.07046489,7.65679978 C0.954452433,7.84347668 1.01214714,8.08858487 1.19936209,8.20427931 L1.6230381,8.46613896 C1.81022813,8.58183341 2.05601007,8.52429686 2.17202253,8.3375951 L4.33314402,4.86002639 L4.33314402,18.0907735 C4.33314402,18.3103817 4.51166116,18.4884343 4.73189792,18.4884343 L5.23034028,18.4884343 C5.45055212,18.4884343 5.62909418,18.3103817 5.62909418,18.0907735 L5.62909418,4.79861265 L7.82792284,8.33769452 C7.94391038,8.52437142 8.18969231,8.58195768 8.37690726,8.46628808 L8.8006082,8.20447814 C8.98782315,8.08880855 9.04554278,7.84370037 8.92955524,7.65699861" id="Fill-1" stroke="#FFA940" stroke-width="0.2" fill="#FFA940" mask="url(#mask-4)"></path>
                                </g>
                            </g>
                        </g>
                    </g>
                </g>
            </g>
        </g>
    </g>
</svg>