<?xml version="1.0" encoding="UTF-8"?>
<svg width="16px" height="16px" viewBox="0 0 16 16" version="1.1" xmlns="http://www.w3.org/2000/svg" xmlns:xlink="http://www.w3.org/1999/xlink">
    <title>Group</title>
    <g id="分析系统" stroke="none" stroke-width="1" fill="none" fill-rule="evenodd">
        <g id="登陆页面" transform="translate(-1827.000000, -19.000000)" fill="#333333" fill-rule="nonzero">
            <g id="Group-4" transform="translate(1827.000000, 16.000000)">
                <g id="Group" transform="translate(0.000000, 3.000000)">
                    <path d="M14.4182943,10.8633941 C14.2235806,10.7652253 14.1534555,10.5424444 14.2616655,10.365799 C14.3698756,10.1891535 14.6154438,10.1255356 14.8101575,10.2237044 L15.3255311,10.4835809 C15.9870019,10.8169644 16.2025626,11.5521969 15.7892777,12.112769 C15.6705667,12.2725423 15.5116327,12.4043805 15.3256207,12.4973797 L8.70248717,15.8362559 C8.26957334,16.0545814 7.73044772,16.0545814 7.29753388,15.8362559 L0.674400325,12.4973797 C0.0129294926,12.1639962 -0.202541494,11.4287637 0.210743331,10.8681916 C0.329465284,10.708448 0.488398404,10.5766384 0.674400325,10.4836622 L1.19667547,10.2203706 C1.39116163,10.1240849 1.63484772,10.1881473 1.7424557,10.3638501 C1.85006368,10.5395529 1.78130106,10.7611064 1.58844904,10.8600603 L1.06626353,11.1233519 C0.992214156,11.1599125 0.928805557,11.2119188 0.881266812,11.2750821 C0.735079966,11.4734046 0.809831548,11.7284836 1.06626353,11.8577713 L7.68930746,15.1967288 C7.87860643,15.292109 8.121325,15.292109 8.31062397,15.1967288 L14.9337575,11.8577713 C15.0078169,11.8211876 15.0712263,11.7691528 15.1187542,11.7059599 C15.2649411,11.5076374 15.1901895,11.2525583 14.9337575,11.1233519 L14.4182943,10.8634754 L14.4182943,10.8633941 Z M14.3757199,7.38189491 C14.1828679,7.282941 14.1141053,7.06138748 14.2217133,6.88568467 C14.3293213,6.70998187 14.5730074,6.64591954 14.7674935,6.7422052 L15.3256207,7.02354833 C15.9870019,7.3569318 16.2025626,8.09216433 15.7892777,8.65273645 C15.6705667,8.81250972 15.5116327,8.94434793 15.3256207,9.03734714 L8.70248717,12.3762233 C8.26957334,12.5944675 7.73044772,12.5944675 7.29753388,12.3762233 L0.674400325,9.03726582 C0.0129294926,8.70388235 -0.202541494,7.96864982 0.210743331,7.40807771 C0.329454404,7.24830444 0.488388392,7.11646622 0.674400325,7.02346702 L1.23440978,6.74122945 C1.42912349,6.64306066 1.67469171,6.70667855 1.78290175,6.88332399 C1.89111179,7.05996942 1.8209867,7.28275036 1.62627299,7.38091915 L1.06626353,7.66323803 C0.992214156,7.69979865 0.928805557,7.75180496 0.881266812,7.81496817 C0.735079966,8.01329068 0.809831548,8.2683697 1.06626353,8.39757612 L7.68930746,11.7365336 C7.87860643,11.8319951 8.121325,11.8319951 8.31062397,11.7365336 L14.9337575,8.39757612 C15.0078069,8.3610155 15.0712155,8.3090092 15.1187542,8.24584598 C15.2649411,8.04752347 15.1901895,7.79244446 14.9337575,7.66323803 L14.3757199,7.38189491 Z M8.23945759,0.788138989 C8.09054913,0.713071577 7.90947192,0.713071577 7.76056346,0.788138989 L1.11331938,4.13921209 C0.956852785,4.21809716 0.859817684,4.36773019 0.859817684,4.53012454 C0.859817684,4.69251889 0.956852785,4.84215193 1.11331938,4.92103699 L7.76056346,8.27219141 C7.90947192,8.34725882 8.09054913,8.34725882 8.23945759,8.27219141 L14.8867017,4.92103699 C15.0431683,4.84215193 15.1402034,4.69251889 15.1402034,4.53012454 C15.1402034,4.36773019 15.0431683,4.21809716 14.8867017,4.13921209 L8.23945759,0.788138989 L8.23945759,0.788138989 Z M15.2785649,3.49952239 C15.9059762,3.81583012 16.1318443,4.53366166 15.7832725,5.10285296 C15.6654368,5.29521872 15.4906069,5.45382545 15.2785649,5.5607267 L8.6313208,8.91188111 C8.23872279,9.10981349 7.76129827,9.10981349 7.36870026,8.91188111 L0.721456176,5.5607267 C0.0940448182,5.24441896 -0.131912901,4.52658742 0.216748554,3.95747744 C0.334546605,3.76509269 0.509345467,3.6064578 0.721366546,3.49952239 L7.36878989,0.148449285 C7.7613879,-0.0494830949 8.23881242,-0.0494830949 8.63141043,0.148449285 L15.2786545,3.49952239 L15.2785649,3.49952239 Z" id="Shape"></path>
                </g>
            </g>
        </g>
    </g>
</svg>